<svg id="Capa_1" enable-background="new 0 0 512 512" height="512" viewBox="0 0 512 512" width="512" xmlns="http://www.w3.org/2000/svg"><g><g><path d="m512 256c0 .58 0 1.16-.01 1.73-.09 13.99-1.3 27.72-3.56 41.09-7.34 43.57-25.68 83.4-52.07 116.54l-68.81 33.19c-83.12 40.09-179.98 40.09-263.1 0l-68.81-33.19c-26.39-33.14-44.73-72.97-52.07-116.54-2.26-13.37-3.47-27.1-3.56-41.09-.01-.57-.01-1.15-.01-1.73 0-46.22 12.25-89.57 33.68-127 44.12-77.07 127.16-129 222.32-129s178.2 51.93 222.32 129c21.43 37.43 33.68 80.78 33.68 127z" fill="#00beff"/><path d="m512 256c0 60.25-20.82 115.64-55.64 159.36l-.01.01-68.8 33.18c-83.12 40.09-179.98 40.09-263.1 0l-68.8-33.19h-.01c-34.82-43.73-55.64-99.11-55.64-159.36 0-46.22 12.25-89.57 33.68-127 44.12 77.07 127.16 129 222.32 129s178.2-51.93 222.32-129c21.43 37.43 33.68 80.78 33.68 127z" fill="#0af"/></g><g><path d="m456.36 415.36c-46.9 58.89-119.23 96.64-200.36 96.64-35.4 0-69.14-7.19-99.81-20.19-2.97-1.26-5.92-2.58-8.83-3.95-6.88-3.23-13.6-6.75-20.13-10.57-2.14-1.24-4.27-2.53-6.37-3.84-2.84-1.77-5.65-3.59-8.41-5.47-5.81-3.94-11.44-8.11-16.89-12.51-5.83-4.68-11.44-9.62-16.83-14.79-8.25-7.92-15.96-16.37-23.09-25.32z" fill="#dd584a"/><path d="m456.36 415.36c-24.45 30.7-55.81 55.65-91.72 72.5-2.91 1.37-5.86 2.69-8.83 3.95-30.67 13-64.41 20.19-99.81 20.19v-96.64z" fill="#db351d"/><g><path d="m404.79 313.65c-.26 56.37-38.78 101.71-85.73 101.71h-126.12c-46.91 0-85.43-45.26-85.73-101.57v-1.15c0-98.65 66.62-178.64 148.79-178.63 2.65 0 5.31.08 7.99.25 76.85 4.82 138.46 80.63 140.74 172.98.05 2.14.07 4.28.06 6.41z" fill="#e3835a"/><path d="m404.79 313.65c-.26 56.37-38.78 101.71-85.73 101.71h-63.06v-281.35c2.65 0 5.31.08 7.99.25 76.85 4.82 138.46 80.63 140.74 172.98.05 2.14.07 4.28.06 6.41z" fill="#d66c47"/><g><path d="m239.131 415.786c.001-.106.008-.21.008-.316 0-19.358-15.692-35.05-35.05-35.05-4.599 0-8.986.895-13.01 2.505-7.772-13.924-22.644-23.346-39.723-23.346-22.179 0-40.639 15.884-44.652 36.894-1.196-.171-2.417-.265-3.661-.265-12.059 0-22.162 8.348-24.863 19.578z" fill="#a52817"/><path d="m204.932 415.786c0-.061.004-.121.004-.182 0-11.131-9.023-20.155-20.154-20.155-2.644 0-5.167.514-7.481 1.44-4.469-8.007-13.021-13.424-22.842-13.424-12.754 0-23.369 9.133-25.676 21.215-.688-.098-1.39-.152-2.105-.152-6.934 0-12.744 4.8-14.297 11.258z" fill="#7f0000"/></g><g><path d="m436.651 415.786c.001-.106.008-.21.008-.316 0-19.358-15.693-35.05-35.05-35.05-4.599 0-8.986.895-13.01 2.505-7.772-13.924-22.644-23.346-39.723-23.346-22.179 0-40.639 15.884-44.651 36.894-1.196-.171-2.418-.265-3.661-.265-12.059 0-22.162 8.348-24.863 19.578z" fill="#a52817"/><path d="m402.453 415.786c0-.061.004-.121.004-.182 0-11.131-9.023-20.155-20.155-20.155-2.645 0-5.168.514-7.481 1.44-4.469-8.007-13.021-13.424-22.842-13.424-12.754 0-23.368 9.133-25.676 21.215-.688-.098-1.39-.152-2.105-.152-6.934 0-12.744 4.8-14.297 11.258z" fill="#7f0000"/></g><g><g><g><path d="m162.991 377.537v67.88c0 4.335-3.986 7.576-8.233 6.68l-33.895-7.111-4.335-.909c-15.597-3.268-28.972-11.782-38.456-23.461-9.484-11.672-15.064-26.517-15.064-42.449 0-27.051 21.245-49.691 48.282-50.593 3.269-.109 6.469.096 9.573.588 23.877 3.773 42.128 24.437 42.128 49.375z" fill="#ffc0a4"/><path d="m162.991 377.537v67.88c0 4.335-3.986 7.576-8.233 6.68l-33.895-7.111v-116.825c23.877 3.774 42.128 24.438 42.128 49.376z" fill="#ffa87a"/><path d="m95.56 407.04v48.43c-5.83-4.68-11.44-9.62-16.83-14.79v-33.64c0-5.79 5.71-9.85 11.18-7.95 1.69.59 3.1 1.68 4.09 3.07.99 1.4 1.56 3.09 1.56 4.88z" fill="#3b3572"/><path d="m129.27 418.77v53.05c0 2.13-.78 4.02-2.04 5.47-2.14-1.24-4.27-2.53-6.37-3.84-2.84-1.77-5.65-3.59-8.41-5.47v-49.21c0-1.23.26-2.38.72-3.41 1.33-3.01 4.37-5.01 7.69-5 .91 0 1.84.15 2.77.47 1.68.59 3.1 1.68 4.09 3.07.32.46.6.94.83 1.46.47 1.05.72 2.21.72 3.41z" fill="#3b3572"/><path d="m162.99 430.51v53.04c0 4.22-3.03 7.51-6.8 8.26-2.97-1.26-5.92-2.58-8.83-3.95-.76-1.28-1.19-2.76-1.19-4.31v-53.04c0-5.79 5.71-9.85 11.17-7.95 1.69.59 3.1 1.68 4.09 3.08.99 1.39 1.56 3.08 1.56 4.87z" fill="#2c2164"/></g><path d="m129.27 418.77v53.05c0 2.13-.78 4.02-2.04 5.47-2.14-1.24-4.27-2.53-6.37-3.84v-63.09c.91 0 1.84.15 2.77.47 1.68.59 3.1 1.68 4.09 3.07.32.46.6.94.83 1.46.47 1.05.72 2.21.72 3.41z" fill="#2c2164"/></g><g><g><path d="m349.009 377.537v67.88c0 4.335 3.986 7.576 8.233 6.68l33.895-7.111 4.335-.909c15.597-3.268 28.972-11.782 38.456-23.461 9.484-11.672 15.064-26.517 15.064-42.449 0-27.051-21.245-49.691-48.282-50.593-3.269-.109-6.469.096-9.573.588-23.878 3.773-42.128 24.437-42.128 49.375z" fill="#e3835a"/><path d="m349.009 377.537v67.88c0 4.335 3.986 7.576 8.233 6.68l33.895-7.111v-116.825c-23.878 3.774-42.128 24.438-42.128 49.376z" fill="#ffa87a"/><path d="m433.27 407.04v33.65c-5.39 5.18-11.01 10.12-16.83 14.81v-48.46c0-1.79.57-3.48 1.56-4.88.99-1.39 2.4-2.48 4.09-3.07 5.47-1.9 11.18 2.16 11.18 7.95z" fill="#2c2164"/><path d="m399.55 418.77v49.22c-4.81 3.27-9.74 6.37-14.78 9.3-1.26-1.45-2.04-3.34-2.04-5.47v-53.05c0-1.79.56-3.48 1.55-4.87s2.41-2.48 4.09-3.07c.93-.32 1.86-.47 2.77-.47 4.46-.01 8.41 3.6 8.41 8.41z" fill="#2c2164"/><path d="m365.83 430.51v53.04c0 1.55-.43 3.03-1.19 4.31-2.91 1.37-5.86 2.69-8.83 3.95-3.77-.75-6.8-4.04-6.8-8.26v-53.04c0-1.79.57-3.48 1.56-4.87.99-1.4 2.4-2.49 4.09-3.08 5.46-1.9 11.17 2.16 11.17 7.95z" fill="#131042"/></g><path d="m391.14 410.36v63.09c-2.1 1.32-4.23 2.59-6.37 3.84-1.26-1.45-2.04-3.34-2.04-5.47v-53.05c0-1.79.56-3.48 1.55-4.87s2.41-2.48 4.09-3.07c.93-.32 1.86-.47 2.77-.47z" fill="#131042"/></g></g><path d="m302.44 352.88c-.32 2.32-.87 4.55-1.62 6.7-1.21 3.45-2.91 6.62-5.06 9.49-.85 1.15-1.79 2.23-2.77 3.27-6.83 7.22-16.57 11.64-27.12 11.64h-19.72c-10.56 0-20.28-4.42-27.09-11.64-.97-1.04-1.91-2.12-2.76-3.27-2.15-2.85-3.87-6.04-5.07-9.49-.85-2.36-1.44-4.85-1.76-7.45-.26-1.91-.36-3.87-.36-5.87 0-25.91 20.99-46.91 46.89-46.89 1.09 0 2.2.03 3.31.11 23.17 1.59 41.94 20.4 43.47 43.57.23 3.36.1 6.64-.34 9.83z" fill="#ffc0a4"/><path d="m302.44 352.88c-.32 2.32-.87 4.55-1.62 6.7-1.21 3.45-2.91 6.62-5.06 9.49-.85 1.15-1.79 2.23-2.77 3.27-6.83 7.22-16.57 11.64-27.12 11.64h-9.87v-84.61c1.09 0 2.2.03 3.31.11 23.17 1.59 41.94 20.4 43.47 43.57.23 3.36.1 6.64-.34 9.83z" fill="#ffa87a"/><path d="m295.73 369.07c-6.81 9.12-17.83 14.91-29.89 14.91h-19.72c-12.06 0-23.06-5.79-29.85-14.91l39.7-8.24.03.01z" fill="#ffc0a4"/><path d="m295.73 369.07c-6.81 9.12-17.83 14.91-29.89 14.91h-9.84v-23.14z" fill="#ffa87a"/><g><path d="m272.062 359.579-.829 11.297-1.298 17.764c-.34 4.531-4.106 8.042-8.659 8.042h-10.552c-4.553 0-8.318-3.51-8.658-8.042l-1.383-19.019-.744-10.042z" fill="#fff"/><path d="m272.062 359.579-.829 11.297-1.298 17.764c-.34 4.531-4.106 8.042-8.659 8.042h-5.276v-37.102h16.062z" fill="#edf2f9"/></g><path d="m300.793 359.579c-1.213 3.446-2.914 6.616-5.063 9.488-.851 1.149-1.787 2.234-2.766 3.276h-9.212c-4.957 0-9.828-.936-14.36-2.723-4.978-1.936-9.552-4.914-13.424-8.786-3.68 3.68-8.02 6.574-12.743 8.531-1.426.596-2.894 1.106-4.383 1.51-3.425.979-6.999 1.468-10.637 1.468h-9.169c-.979-1.042-1.915-2.127-2.766-3.276-2.149-2.851-3.872-6.042-5.063-9.488h13.254c4.616 0 9.169-.894 13.36-2.617 1.276-.51 2.51-1.106 3.723-1.766 5.063-2.766 8.041-8.212 8.041-13.977v-10.488h12.765v10.488c0 5.765 2.979 11.19 8.02 13.977.021 0 .064.021.085.043 1.128.596 2.276 1.149 3.447 1.638 4.276 1.766 8.871 2.702 13.594 2.702z" fill="#7f0000"/><g fill="#fff"><path d="m352.575 366.168-58.63-17.931h57.121c2.35 0 4.449-1.718 4.672-4.058.256-2.684-1.848-4.942-4.479-4.942h-55.014l56.331-17.227c2.376-.728 3.714-3.243 2.987-5.62-.728-2.377-3.247-3.71-5.62-2.987l-56.122 17.163c-5.945 1.818-10.005 7.306-10.005 13.523 0 6.217 4.06 11.704 10.005 13.523l56.123 17.164c.438.134.882.197 1.318.197 1.926 0 3.709-1.247 4.302-3.185.725-2.377-.613-4.892-2.989-5.62z"/><path d="m162.058 313.051c-2.374-.726-4.893.61-5.62 2.987s.611 4.893 2.987 5.62l56.328 17.227h-54.818c-2.35 0-4.449 1.718-4.672 4.058-.256 2.684 1.848 4.942 4.479 4.942h57.317l-58.633 17.931c-2.376.728-3.714 3.243-2.987 5.62.593 1.938 2.376 3.185 4.302 3.185.436 0 .88-.063 1.318-.197l56.122-17.163c5.945-1.818 10.006-7.306 10.006-13.523 0-6.217-4.06-11.704-10.005-13.523z"/></g><g><path d="m218.796 299.364h-35.102c-4.259 0-7.712-3.453-7.712-7.712 0-4.259 3.453-7.712 7.712-7.712h35.102c4.259 0 7.712 3.453 7.712 7.712 0 4.259-3.453 7.712-7.712 7.712z" fill="#a52817"/><path d="m328.306 299.364h-35.103c-4.259 0-7.712-3.453-7.712-7.712 0-4.259 3.453-7.712 7.712-7.712h35.103c4.259 0 7.712 3.453 7.712 7.712 0 4.259-3.453 7.712-7.712 7.712z" fill="#7f0000"/></g><g fill="#a52817"><path d="m157.147 190.455c-8.371 8.371-11.502 19.998-9.392 30.804 1.879 9.624 14.029 12.984 20.962 6.05l25.284-25.284c6.934-6.934 3.574-19.084-6.05-20.962-10.806-2.109-22.433 1.021-30.804 9.392z"/><path d="m354.853 190.455c8.371 8.371 11.502 19.998 9.392 30.804-1.879 9.624-14.029 12.984-20.962 6.05l-25.284-25.284c-6.934-6.934-3.574-19.084 6.05-20.962 10.806-2.109 22.433 1.021 30.804 9.392z"/></g></g><path d="m274.74 328.26c0 1.5-.58 3.02-1.88 4.21-4.77 4.37-10.82 6.56-16.86 6.56s-12.09-2.19-16.86-6.56c-3.88-3.56-1.36-10.03 3.91-10.03h25.9c3.5 0 5.79 2.86 5.79 5.82z" fill="#a52817"/><path d="m274.74 328.26c0 1.5-.58 3.02-1.88 4.21-4.77 4.37-10.82 6.56-16.86 6.56v-16.59h12.95c3.5 0 5.79 2.86 5.79 5.82z" fill="#7f0000"/><g><path d="m28.646 184.691c-.002-.002-.003-.003-.004-.004-.113-13.05 10.432-23.665 23.456-23.665 3.078 0 6.014.599 8.707 1.676 5.202-9.319 15.155-15.624 26.585-15.624 14.844 0 27.198 10.63 29.883 24.691.8-.115 1.618-.177 2.45-.177 8.07 0 14.832 5.587 16.639 13.102h-107.716z" fill="#fff"/><path d="m51.534 184.691c-.001-.001-.001-.001-.002-.003-.065-7.504 5.999-13.608 13.488-13.608 1.77 0 3.458.344 5.007.964 2.991-5.359 8.714-8.984 15.287-8.984 8.535 0 15.639 6.113 17.183 14.198.46-.066.93-.102 1.409-.102 4.641 0 8.529 3.213 9.568 7.534h-61.94z" fill="#dfebff"/></g><g><path d="m175.677 85.056c-.003-.002-.004-.004-.007-.006-.168-19.463 15.559-35.294 34.984-35.294 4.59 0 8.97.893 12.986 2.5 7.758-13.898 22.602-23.302 39.65-23.302 22.138 0 40.564 15.854 44.569 36.826 1.194-.171 2.413-.264 3.654-.264 12.036 0 22.121 8.332 24.816 19.541h-160.652z" fill="#fff"/><path d="m209.812 85.056c-.001-.001-.002-.002-.004-.004-.097-11.192 8.947-20.295 20.116-20.295 2.64 0 5.158.513 7.467 1.438 4.461-7.992 12.997-13.399 22.8-13.399 12.73 0 23.325 9.117 25.628 21.176.687-.098 1.387-.152 2.101-.152 6.921 0 12.72 4.791 14.27 11.237h-92.378z" fill="#dfebff"/></g><g><path d="m383.475 186.522c-.002-.002-.003-.003-.004-.004-.113-13.05 10.432-23.665 23.457-23.665 3.078 0 6.014.599 8.707 1.676 5.202-9.319 15.155-15.624 26.585-15.624 14.844 0 27.198 10.63 29.883 24.691.8-.115 1.618-.177 2.45-.177 8.07 0 14.832 5.587 16.639 13.103z" fill="#fff"/><path d="m406.363 186.522c-.001-.001-.001-.001-.003-.002-.065-7.504 5.999-13.608 13.488-13.608 1.77 0 3.458.344 5.007.964 2.991-5.359 8.714-8.984 15.287-8.984 8.535 0 15.639 6.113 17.184 14.198.46-.066.93-.102 1.409-.102 4.641 0 8.529 3.212 9.568 7.534z" fill="#dfebff"/></g></g></g></svg>